<svg xmlns="http://www.w3.org/2000/svg" xmlns:xlink="http://www.w3.org/1999/xlink" width="1080" zoomAndPan="magnify" viewBox="0 0 810 809.999993" height="1080" preserveAspectRatio="xMidYMid meet" version="1.0"><defs><clipPath id="2b4372ec14"><path d="M 318 276.597656 L 736 276.597656 L 736 627 L 318 627 Z M 318 276.597656 " clip-rule="nonzero"/></clipPath><clipPath id="8c82acf2ab"><path d="M 732.601562 625.199219 C 731.550781 617.851562 730.425781 614.851562 728.851562 611.175781 C 726.523438 605.550781 722.324219 598.5 718.726562 590.324219 C 713.851562 579.226562 706.726562 558.601562 702.976562 550.351562 C 701.25 546.601562 701.023438 546.074219 698.773438 542.25 C 692.773438 532.125 673.125 503.550781 662.925781 488.851562 C 655.648438 478.351562 650.925781 471.375 643.875 462.226562 C 635.773438 451.726562 623.476562 437.101562 616.726562 429.375 C 612.898438 425.023438 610.199219 421.800781 607.5 419.324219 C 605.699219 417.675781 604.648438 416.851562 602.699219 415.574219 C 599.851562 413.699219 595.5 411 592.050781 409.726562 C 589.199219 408.675781 586.648438 408.300781 583.574219 408 C 579.898438 407.625 574.351562 407.476562 571.351562 407.925781 C 569.476562 408.226562 568.125 408.449219 566.925781 409.199219 C 565.726562 409.949219 564.824219 411.074219 564 412.351562 C 563.023438 413.699219 562.199219 415.273438 561.75 417.226562 C 561.226562 419.550781 560.398438 423.75 561.523438 425.625 C 562.5 427.273438 565.050781 428.023438 566.851562 428.550781 C 568.574219 429 570.523438 429 572.101562 428.773438 C 573.523438 428.550781 574.875 428.175781 575.925781 427.5 C 576.898438 426.824219 577.648438 425.851562 578.398438 424.800781 C 579.226562 423.601562 580.050781 422.25 580.574219 420.75 C 581.25 418.949219 581.625 417.300781 581.925781 414.523438 C 582.449219 409.425781 582.976562 398.324219 581.625 392.023438 C 580.648438 387.226562 578.773438 384.148438 576.375 379.875 C 573.375 374.476562 568.5 367.648438 564.449219 362.625 C 560.851562 358.273438 557.175781 354.523438 553.574219 351.074219 C 550.273438 348 548.476562 346.273438 543.75 342.75 C 533.398438 335.101562 503.699219 316.050781 492.074219 309.226562 C 486.449219 305.925781 484.5 304.800781 479.101562 302.324219 C 470.773438 298.574219 456.75 293.101562 446.476562 289.648438 C 437.550781 286.726562 428.699219 284.25 420.898438 282.675781 C 414.375 281.398438 409.574219 280.800781 402.824219 280.425781 C 394.425781 279.898438 382.800781 279 374.398438 280.648438 C 367.125 282.074219 361.5 285.300781 354.898438 288.226562 C 347.851562 291.375 339.449219 295.574219 333.226562 298.875 C 328.351562 301.5 322.800781 306.375 320.476562 306.226562 C 319.648438 306.148438 318.898438 305.476562 318.75 304.949219 C 318.601562 304.574219 318.898438 303.898438 319.199219 303.675781 C 319.5 303.375 320.175781 303.148438 320.550781 303.300781 C 321 303.449219 321.675781 304.273438 321.675781 304.726562 C 321.75 305.101562 321.449219 305.773438 321.074219 306 C 320.699219 306.226562 319.574219 306.226562 319.273438 305.925781 C 318.898438 305.550781 318.675781 304.574219 319.125 303.75 C 320.175781 301.648438 327.074219 298.800781 331.949219 296.175781 C 338.175781 292.800781 346.5 288.601562 353.699219 285.523438 C 360.449219 282.523438 366.449219 279.148438 373.726562 277.726562 C 381.75 276.148438 392.925781 277.199219 399.824219 277.351562 C 404.476562 277.5 407.476562 277.648438 411.449219 278.101562 C 415.5 278.550781 419.25 279.226562 423.824219 280.199219 C 429.601562 281.476562 435.976562 283.050781 443.476562 285.523438 C 453.898438 288.976562 471.300781 295.5 480.449219 299.699219 C 486.074219 302.25 487.949219 303.375 493.726562 306.75 C 505.5 313.648438 535.125 332.625 545.550781 340.425781 C 550.425781 344.023438 552.300781 345.75 555.675781 348.976562 C 559.425781 352.5 563.175781 356.324219 566.851562 360.824219 C 570.976562 366 576.300781 373.949219 579 378.375 C 580.574219 380.925781 581.324219 382.425781 582.226562 384.601562 C 583.199219 386.851562 584.101562 388.574219 584.625 391.574219 C 585.523438 397.050781 585.300781 409.875 584.925781 414.824219 C 584.699219 417.148438 584.550781 418.273438 584.023438 420 C 583.351562 421.949219 582.449219 424.125 581.324219 425.851562 C 580.199219 427.5 578.699219 429.148438 577.273438 430.125 C 576.148438 430.949219 575.25 431.398438 573.824219 431.625 C 571.726562 432 568.425781 432.074219 566.023438 431.398438 C 563.699219 430.800781 560.925781 429.375 559.726562 428.101562 C 558.976562 427.351562 558.75 426.75 558.523438 425.699219 C 558.148438 423.976562 558.226562 420.824219 558.601562 418.5 C 558.898438 416.398438 559.726562 414.148438 560.476562 412.425781 C 561.148438 411.148438 561.75 410.101562 562.574219 409.125 C 563.476562 408.148438 564.449219 407.175781 565.726562 406.5 C 567.226562 405.675781 568.949219 405.226562 571.351562 404.925781 C 575.25 404.476562 582.375 404.476562 587.023438 405.300781 C 590.851562 405.976562 593.925781 407.175781 597.300781 408.824219 C 601.050781 410.699219 604.949219 413.175781 608.476562 416.101562 C 612.226562 419.324219 614.773438 422.625 619.050781 427.425781 C 626.101562 435.523438 636.449219 447.523438 646.351562 460.5 C 659.550781 477.824219 680.324219 508.5 690.074219 523.050781 C 695.175781 530.699219 698.625 535.949219 701.398438 540.824219 C 703.273438 544.050781 704.023438 545.324219 705.824219 549.226562 C 709.574219 557.550781 716.398438 577.199219 721.5 589.125 C 725.699219 598.949219 731.625 608.925781 733.800781 615.75 C 735.074219 619.648438 736.199219 623.773438 735.601562 625.425781 C 735.300781 626.175781 734.476562 626.699219 734.023438 626.625 C 733.5 626.625 732.601562 625.199219 732.601562 625.199219 " clip-rule="nonzero"/></clipPath><clipPath id="43ee7b1a3b"><path d="M 312.765625 283.5625 L 338.113281 283.5625 L 338.113281 313.035156 L 312.765625 313.035156 Z M 312.765625 283.5625 " clip-rule="nonzero"/></clipPath><clipPath id="286e1f97e2"><path d="M 318.523438 304.425781 C 318.824219 287.925781 319.125 285.601562 319.949219 284.625 C 320.550781 283.949219 321.601562 283.574219 322.125 283.648438 C 322.5 283.800781 322.800781 284.25 322.949219 284.773438 C 323.25 285.75 323.101562 287.398438 322.726562 289.199219 C 322.050781 292.050781 319.425781 296.550781 318.300781 300.226562 C 317.175781 303.75 316.726562 309.300781 315.824219 310.875 C 315.449219 311.398438 315.148438 311.699219 314.773438 311.773438 C 314.324219 311.851562 313.425781 311.550781 313.125 311.175781 C 312.898438 310.875 312.75 310.199219 312.976562 309.824219 C 313.425781 309.148438 315.523438 308.851562 317.476562 308.550781 C 320.625 308.175781 327 308.023438 330.675781 308.550781 C 333.375 308.925781 336.675781 309.449219 337.574219 310.425781 C 338.023438 310.949219 338.023438 311.851562 337.800781 312.226562 C 337.574219 312.675781 336.601562 313.050781 336.148438 312.976562 C 335.699219 312.898438 335.175781 312.449219 335.101562 312 C 334.949219 311.550781 335.25 310.574219 335.625 310.273438 C 336 309.976562 337.050781 310.050781 337.425781 310.351562 C 337.800781 310.574219 338.101562 311.25 338.023438 311.625 C 337.875 312.148438 337.050781 312.824219 336.300781 312.976562 C 335.023438 313.273438 333.074219 311.851562 330.675781 311.550781 C 326.625 311.023438 314.324219 312.523438 314.101562 311.851562 C 314.101562 311.625 315.75 310.875 315.824219 310.875 C 315.824219 310.875 314.851562 311.773438 314.398438 311.851562 C 313.949219 311.851562 313.425781 311.699219 313.125 311.175781 C 312.601562 310.050781 313.574219 306.449219 314.324219 303.449219 C 315.449219 299.101562 319.273438 291.226562 319.949219 287.925781 C 320.25 286.425781 319.574219 285.226562 320.023438 284.550781 C 320.476562 283.949219 321.675781 283.5 322.125 283.648438 C 322.574219 283.800781 322.875 284.476562 322.949219 285.148438 C 323.101562 286.351562 321.824219 288.074219 321.523438 290.25 C 321 293.773438 322.574219 302.699219 321.523438 304.800781 C 321.074219 305.550781 320.324219 306 319.875 305.925781 C 319.351562 305.851562 318.523438 304.425781 318.523438 304.425781 " clip-rule="nonzero"/></clipPath></defs><g clip-path="url(#2b4372ec14)"><g clip-path="url(#8c82acf2ab)"><path fill="#2c363f" d="M 315.75 274.351562 L 738.480469 274.351562 L 738.480469 629.625 L 315.75 629.625 Z M 315.75 274.351562 " fill-opacity="1" fill-rule="nonzero"/></g></g><g clip-path="url(#43ee7b1a3b)"><g clip-path="url(#286e1f97e2)"><path fill="#2c363f" d="M 309.976562 280.648438 L 341.023438 280.648438 L 341.023438 315.945312 L 309.976562 315.945312 Z M 309.976562 280.648438 " fill-opacity="1" fill-rule="nonzero"/></g></g></svg>