<svg xmlns="http://www.w3.org/2000/svg" xmlns:xlink="http://www.w3.org/1999/xlink" width="1080" zoomAndPan="magnify" viewBox="0 0 810 809.999993" height="1080" preserveAspectRatio="xMidYMid meet" version="1.0"><defs><clipPath id="9c73a31d3e"><path d="M 210 566 L 356 566 L 356 688.671875 L 210 688.671875 Z M 210 566 " clip-rule="nonzero"/></clipPath></defs><path fill="#e6644e" d="M 136.921875 522.800781 C 140.988281 522.609375 144.644531 519.851562 145.78125 515.714844 C 146.054688 514.71875 174.164062 415.253906 257.675781 353.089844 C 261.949219 349.910156 262.832031 343.875 259.648438 339.605469 C 256.46875 335.332031 250.417969 334.453125 246.148438 337.632812 C 157.160156 403.871094 128.355469 506.304688 127.167969 510.636719 C 125.765625 515.765625 128.796875 521.0625 133.929688 522.464844 C 134.929688 522.738281 135.9375 522.84375 136.921875 522.800781 " fill-opacity="1" fill-rule="nonzero"/><path fill="#443232" d="M 247.300781 339.175781 C 158.855469 405.015625 130.203125 506.84375 129.03125 511.144531 C 127.910156 515.238281 130.332031 519.488281 134.4375 520.605469 C 138.53125 521.722656 142.820312 519.21875 143.917969 515.207031 C 144.195312 514.199219 172.511719 414.085938 256.523438 351.546875 C 258.179688 350.316406 259.253906 348.511719 259.546875 346.472656 C 259.851562 344.441406 259.335938 342.40625 258.101562 340.75 C 256.871094 339.101562 255.070312 338.03125 253.027344 337.730469 C 252.53125 337.65625 252.03125 337.632812 251.539062 337.65625 C 250.019531 337.730469 248.554688 338.25 247.300781 339.175781 Z M 133.421875 524.324219 C 127.269531 522.644531 123.628906 516.269531 125.3125 510.121094 C 126.496094 505.773438 155.492188 402.707031 244.996094 336.085938 C 247.476562 334.238281 250.523438 333.472656 253.585938 333.917969 C 256.644531 334.359375 259.351562 335.972656 261.191406 338.457031 C 263.042969 340.929688 263.816406 343.980469 263.367188 347.03125 C 262.921875 350.09375 261.308594 352.789062 258.828125 354.636719 C 175.867188 416.394531 147.910156 515.238281 147.640625 516.222656 C 146.3125 521.078125 142.03125 524.492188 137.015625 524.726562 C 135.808594 524.785156 134.601562 524.648438 133.421875 524.324219 " fill-opacity="1" fill-rule="nonzero"/><path fill="#ffeeee" d="M 160.972656 505.617188 C 160.972656 505.617188 164.078125 508.902344 164.75 517.46875 C 165.503906 527.132812 167.140625 532.824219 170.316406 537.46875 C 175.71875 545.371094 179.5 552.65625 174.25 558.164062 C 168.722656 563.964844 152.222656 560.921875 145.859375 541.671875 C 145.859375 541.671875 138.777344 557.222656 116.878906 570.714844 C 97.71875 582.523438 69.394531 584.769531 65.726562 575.085938 C 62.90625 567.648438 70.609375 561.910156 83.417969 555.632812 C 83.417969 555.632812 66.742188 559.339844 55.378906 554.214844 C 45.890625 549.941406 46.019531 539.648438 59.128906 537.40625 C 67.460938 535.980469 76.042969 533.976562 76.042969 533.976562 C 76.042969 533.976562 62.253906 532.730469 56.46875 525.203125 C 50.6875 517.683594 54.523438 509.832031 65.875 511.808594 C 77.222656 513.792969 88.570312 515.261719 97.941406 510.097656 C 106.953125 505.132812 111.460938 494.894531 124.5 494.6875 C 124.5 494.6875 116.117188 492.101562 117.511719 485.023438 C 118.808594 478.394531 132.660156 475.515625 148.398438 479.5 C 165.417969 483.808594 174.691406 495.453125 170.949219 502.03125 C 167.992188 507.226562 160.972656 505.617188 160.972656 505.617188 " fill-opacity="1" fill-rule="nonzero"/><path fill="#443232" d="M 145.957031 539.742188 C 146.753906 539.789062 147.433594 540.3125 147.6875 541.0625 C 150.769531 550.375 156.914062 556.914062 164.128906 558.527344 C 167.734375 559.351562 171.089844 558.691406 172.851562 556.835938 C 176.917969 552.578125 174.285156 546.683594 168.722656 538.558594 C 165.3125 533.566406 163.601562 527.5 162.824219 517.621094 C 162.230469 510.082031 159.636719 507.027344 159.554688 506.925781 C 158.976562 506.304688 158.875 505.390625 159.296875 504.65625 C 159.722656 503.917969 160.578125 503.535156 161.402344 503.742188 C 161.460938 503.75 167.050781 504.980469 169.273438 501.074219 C 170.277344 499.308594 169.765625 497.226562 169.15625 495.792969 C 166.996094 490.742188 159.597656 484.324219 147.925781 481.371094 C 135.824219 478.304688 126.121094 479.636719 121.890625 482.3125 C 120.464844 483.210938 119.628906 484.25 119.402344 485.390625 C 118.371094 490.664062 124.804688 492.765625 125.070312 492.851562 C 125.976562 493.136719 126.542969 494.035156 126.402344 494.96875 C 126.269531 495.902344 125.636719 496.492188 124.527344 496.617188 C 116.785156 496.761719 112.238281 500.816406 107.488281 505.136719 C 104.878906 507.511719 102.175781 509.964844 98.871094 511.785156 C 89.023438 517.222656 77.488281 515.792969 65.542969 513.714844 C 61.128906 512.933594 57.695312 513.796875 56.359375 516.003906 C 55.128906 518.035156 55.753906 521.113281 57.996094 524.03125 C 63.191406 530.785156 76.089844 532.042969 76.21875 532.058594 C 77.15625 532.136719 77.898438 532.898438 77.96875 533.839844 C 78.027344 534.785156 77.402344 535.640625 76.480469 535.851562 C 76.394531 535.875 67.746094 537.894531 59.457031 539.304688 C 54.335938 540.183594 51.058594 542.457031 50.683594 545.386719 C 50.339844 548.027344 52.5 550.800781 56.175781 552.460938 C 66.804688 557.25 82.84375 553.785156 83.007812 553.757812 C 83.933594 553.511719 84.917969 554.082031 85.242188 555.003906 C 85.566406 555.917969 85.148438 556.941406 84.277344 557.367188 C 70.375 564.171875 65.519531 569.105469 67.527344 574.398438 C 68.113281 575.945312 69.679688 577.15625 72.179688 578.007812 C 81.261719 581.109375 100.984375 578.242188 115.871094 569.074219 C 136.9375 556.09375 144.027344 541.015625 144.101562 540.867188 C 144.402344 540.207031 145.046875 539.777344 145.761719 539.742188 C 145.828125 539.742188 145.890625 539.742188 145.957031 539.742188 Z M 70.933594 581.65625 C 67.34375 580.4375 64.921875 578.402344 63.917969 575.765625 C 61.308594 568.867188 66.171875 563.457031 73.59375 558.792969 C 73.5625 558.792969 73.515625 558.796875 73.476562 558.796875 C 67.710938 559.066406 60.523438 558.644531 54.585938 555.96875 C 49.335938 553.605469 46.296875 549.257812 46.859375 544.898438 C 47.457031 540.195312 51.925781 536.679688 58.800781 535.507812 C 61.585938 535.03125 64.421875 534.488281 66.945312 533.976562 C 62.699219 532.589844 57.917969 530.253906 54.9375 526.382812 C 51.65625 522.109375 50.949219 517.480469 53.054688 514.003906 C 55.285156 510.339844 60.070312 508.851562 66.207031 509.914062 C 77.441406 511.875 88.261719 513.234375 97.007812 508.410156 C 99.917969 506.808594 102.332031 504.613281 104.894531 502.28125 C 108.804688 498.726562 112.8125 495.078125 118.703125 493.527344 C 116.492188 491.519531 114.847656 488.574219 115.621094 484.648438 C 116.046875 482.457031 117.5 480.523438 119.824219 479.054688 C 125.835938 475.25 137.246094 474.695312 148.871094 477.632812 C 160.261719 480.519531 169.613281 487.050781 172.707031 494.285156 C 174.070312 497.488281 174.042969 500.496094 172.628906 502.984375 C 170.59375 506.546875 167.160156 507.558594 164.46875 507.746094 C 165.386719 509.832031 166.324219 512.949219 166.671875 517.324219 C 167.386719 526.472656 168.910156 531.992188 171.917969 536.378906 C 177.117188 543.996094 182.136719 552.6875 175.648438 559.496094 C 172.914062 562.371094 168.28125 563.417969 163.285156 562.289062 C 155.824219 560.617188 149.386719 554.707031 145.535156 546.175781 C 142.058594 551.71875 133.824219 562.535156 117.890625 572.359375 C 107.75 578.605469 94.464844 582.523438 83.507812 583.035156 C 78.714844 583.257812 74.378906 582.828125 70.933594 581.65625 " fill-opacity="1" fill-rule="nonzero"/><path fill="#443232" d="M 132.78125 497.175781 C 133.644531 497.136719 134.40625 496.515625 134.582031 495.628906 C 134.789062 494.582031 134.113281 493.570312 133.074219 493.359375 C 127.832031 492.308594 124.382812 492.761719 124.238281 492.777344 C 123.1875 492.921875 122.449219 493.890625 122.589844 494.941406 C 122.726562 495.996094 123.617188 496.757812 124.753906 496.597656 C 124.78125 496.597656 127.753906 496.230469 132.3125 497.140625 C 132.46875 497.167969 132.625 497.179688 132.78125 497.175781 " fill-opacity="1" fill-rule="nonzero"/><path fill="#443232" d="M 76.132812 535.902344 C 76.167969 535.898438 76.207031 535.898438 76.246094 535.890625 C 76.753906 535.835938 88.828125 534.511719 96.710938 529.03125 C 97.589844 528.421875 97.808594 527.21875 97.199219 526.347656 C 96.589844 525.472656 95.375 525.257812 94.515625 525.867188 C 87.445312 530.773438 75.953125 532.046875 75.835938 532.058594 C 74.78125 532.171875 74.007812 533.121094 74.125 534.175781 C 74.230469 535.199219 75.121094 535.949219 76.132812 535.902344 " fill-opacity="1" fill-rule="nonzero"/><path fill="#443232" d="M 83.515625 557.5625 C 83.695312 557.554688 83.878906 557.515625 84.058594 557.457031 C 84.542969 557.289062 96.164062 553.207031 105.480469 545.792969 C 106.316406 545.128906 106.453125 543.917969 105.789062 543.089844 C 105.125 542.257812 103.910156 542.117188 103.078125 542.78125 C 94.292969 549.773438 82.898438 553.773438 82.792969 553.816406 C 81.785156 554.171875 81.25 555.265625 81.601562 556.265625 C 81.886719 557.09375 82.683594 557.601562 83.515625 557.5625 " fill-opacity="1" fill-rule="nonzero"/><path fill="#443232" d="M 161.058594 507.539062 C 161.542969 507.519531 162.023438 507.3125 162.382812 506.925781 C 163.105469 506.148438 163.066406 504.929688 162.28125 504.203125 C 162.003906 503.949219 155.371094 497.851562 146.230469 495.824219 C 145.179688 495.605469 144.164062 496.253906 143.929688 497.285156 C 143.699219 498.332031 144.351562 499.359375 145.394531 499.589844 C 153.484375 501.378906 159.59375 506.976562 159.652344 507.03125 C 160.050781 507.394531 160.558594 507.566406 161.058594 507.539062 " fill-opacity="1" fill-rule="nonzero"/><path fill="#97c5de" d="M 469.773438 597.535156 C 469.773438 597.535156 448.460938 615.121094 462.257812 643.808594 C 462.257812 643.808594 453.148438 649.882812 462.105469 658.765625 C 471.3125 667.898438 492.058594 669.640625 508.839844 659.074219 C 508.839844 659.074219 523.488281 662.570312 542.777344 653.933594 C 562.058594 645.292969 575.394531 634.433594 587.378906 614.808594 C 600.023438 594.09375 594.105469 577.558594 579.125 575.53125 C 579.125 575.53125 568.328125 557.742188 545.855469 562.527344 C 523.386719 567.3125 519.773438 585.460938 519.773438 585.460938 C 519.773438 585.460938 520.914062 578.304688 514.585938 572.742188 C 506.628906 565.757812 491.734375 563.808594 476.550781 570.546875 C 460.972656 577.476562 458.421875 590.886719 469.773438 597.535156 " fill-opacity="1" fill-rule="nonzero"/><path fill="#ffeeee" d="M 506.773438 648.289062 C 511.09375 649.414062 530.339844 653.3125 556.253906 632.777344 C 582.140625 612.269531 585.546875 588.863281 581.714844 577.519531 C 585.332031 578.851562 589.734375 581.96875 591.367188 585.386719 C 594.789062 592.574219 592.402344 604.628906 585.851562 615.359375 C 574.644531 633.71875 562.445312 644.027344 542.578125 652.925781 C 524.191406 661.164062 509.03125 657.558594 508.878906 657.558594 C 508.515625 657.558594 508.316406 657.621094 508.007812 657.816406 C 491.796875 668.015625 471.472656 666.265625 463.140625 658.007812 C 460.726562 655.605469 459.316406 652.558594 459.511719 650.394531 C 459.679688 648.558594 461.25 646.546875 462.117188 645.664062 C 465.253906 648.210938 473.539062 654.152344 485.617188 654.152344 C 491.757812 654.152344 498.972656 652.453125 506.773438 648.289062 " fill-opacity="1" fill-rule="nonzero"/><path fill="#443232" d="M 480.089844 601.578125 C 481.753906 601.578125 483.53125 601.429688 485.386719 601.050781 C 486.433594 600.839844 487.105469 599.820312 486.890625 598.777344 C 486.683594 597.730469 485.65625 597.054688 484.617188 597.273438 C 477.011719 598.832031 470.679688 595.832031 470.617188 595.796875 C 469.65625 595.351562 468.503906 595.738281 468.039062 596.699219 C 467.574219 597.648438 467.96875 598.800781 468.921875 599.269531 C 469.164062 599.386719 473.75 601.578125 480.089844 601.578125 " fill-opacity="1" fill-rule="nonzero"/><path fill="#443232" d="M 522.941406 617.910156 C 523.246094 617.910156 523.558594 617.835938 523.851562 617.679688 C 524.789062 617.171875 525.136719 616.007812 524.632812 615.070312 C 516.328125 599.710938 521.519531 586.3125 521.570312 586.175781 C 521.960938 585.1875 521.480469 584.0625 520.496094 583.667969 C 519.507812 583.28125 518.382812 583.757812 517.984375 584.746094 C 517.738281 585.359375 512.089844 599.96875 521.234375 616.898438 C 521.585938 617.546875 522.25 617.910156 522.941406 617.910156 " fill-opacity="1" fill-rule="nonzero"/><path fill="#443232" d="M 496.800781 599.605469 C 496.863281 599.605469 496.925781 599.605469 496.980469 599.597656 C 497.226562 599.574219 502.964844 599.015625 509.09375 596.222656 C 512.257812 594.78125 521.898438 590.390625 521.78125 580.953125 C 521.769531 579.890625 520.910156 579.046875 519.851562 579.046875 C 519.847656 579.046875 519.839844 579.046875 519.835938 579.046875 C 518.769531 579.058594 517.914062 579.929688 517.929688 580.996094 C 517.984375 585.722656 514.667969 589.445312 507.488281 592.714844 C 501.980469 595.230469 496.679688 595.753906 496.628906 595.757812 C 495.566406 595.859375 494.789062 596.796875 494.882812 597.859375 C 494.976562 598.855469 495.816406 599.605469 496.800781 599.605469 " fill-opacity="1" fill-rule="nonzero"/><path fill="#443232" d="M 509.289062 657.195312 C 509.429688 657.234375 523.59375 660.414062 541.980469 652.179688 C 561.851562 643.277344 574.523438 632.15625 585.730469 613.800781 C 592.285156 603.066406 594.078125 592.792969 590.65625 585.605469 C 588.496094 581.082031 584.316406 578.179688 578.867188 577.4375 C 578.292969 577.363281 577.777344 577.03125 577.476562 576.53125 C 577.0625 575.855469 567.046875 559.996094 546.257812 564.414062 C 525.382812 568.859375 521.808594 585.152344 521.671875 585.839844 C 521.457031 586.863281 520.484375 587.519531 519.445312 587.351562 C 518.414062 587.171875 517.714844 586.199219 517.875 585.171875 C 517.90625 584.917969 518.71875 578.941406 513.308594 574.195312 C 506.585938 568.285156 492.851562 565.417969 477.335938 572.3125 C 469.722656 575.695312 465.003906 580.894531 464.703125 586.238281 C 464.488281 590.042969 466.636719 593.464844 470.753906 595.871094 C 471.296875 596.191406 471.648438 596.75 471.699219 597.378906 C 471.746094 598.003906 471.484375 598.613281 471.003906 599.015625 C 470.183594 599.699219 451.050781 616.042969 463.996094 642.976562 C 464.410156 643.835938 464.125 644.875 463.335938 645.40625 C 463.304688 645.429688 460.394531 647.445312 460.117188 650.523438 C 459.914062 652.6875 461.042969 654.996094 463.464844 657.398438 C 471.792969 665.660156 491.601562 667.640625 507.8125 657.441406 C 508.125 657.246094 508.484375 657.144531 508.847656 657.144531 C 508.992188 657.144531 509.144531 657.164062 509.289062 657.195312 Z M 460.746094 660.136719 C 457.453125 656.867188 455.949219 653.503906 456.273438 650.128906 C 456.59375 646.898438 458.535156 644.546875 459.882812 643.277344 C 449.222656 619.507812 461.792969 603.023438 466.726562 597.808594 C 462.714844 594.738281 460.597656 590.539062 460.855469 586.019531 C 461.230469 579.207031 466.808594 572.773438 475.769531 568.789062 C 490.558594 562.222656 506.671875 563.226562 515.859375 571.296875 C 518.324219 573.46875 519.792969 575.851562 520.640625 578.050781 C 523.96875 571.972656 531.019531 563.71875 545.453125 560.640625 C 566.203125 556.238281 577.726562 570.242188 580.242188 573.753906 C 586.609375 574.855469 591.523438 578.453125 594.140625 583.953125 C 598.132812 592.335938 596.269531 603.945312 589.023438 615.8125 C 577.375 634.894531 564.207031 646.445312 543.5625 655.695312 C 526.25 663.445312 512.632812 661.738281 509.210938 661.113281 C 500.96875 666.125 492.144531 668.277344 484.09375 668.277344 C 474.382812 668.277344 465.796875 665.140625 460.746094 660.136719 " fill-opacity="1" fill-rule="nonzero"/><path fill="#443232" d="M 485.886719 654.664062 C 492.027344 654.664062 499.101562 653.171875 506.902344 649.011719 C 511.222656 650.140625 531.199219 653.730469 557.113281 633.203125 C 586.5 609.917969 586.984375 583.433594 580.707031 574.429688 C 580.097656 573.554688 578.902344 573.339844 578.023438 573.949219 C 577.152344 574.558594 576.933594 575.761719 577.542969 576.636719 C 582.917969 584.355469 581.765625 608.757812 554.71875 630.179688 C 527.742188 651.546875 507.488281 645.175781 507.285156 645.117188 C 506.785156 644.941406 506.21875 644.992188 505.742188 645.253906 C 480.550781 659.152344 463.800781 642.625 463.628906 642.460938 C 462.882812 641.695312 461.664062 641.691406 460.90625 642.441406 C 460.144531 643.1875 460.136719 644.40625 460.882812 645.160156 C 461.015625 645.300781 470.5 654.664062 485.886719 654.664062 " fill-opacity="1" fill-rule="nonzero"/><path fill="#97c5de" d="M 264.398438 583.679688 C 264.398438 583.679688 237.285156 578.320312 223.773438 607.148438 C 223.773438 607.148438 213.304688 603.945312 212.09375 616.496094 C 210.84375 629.398438 222.617188 646.550781 241.429688 652.847656 C 241.429688 652.847656 247.984375 666.394531 266.886719 675.847656 C 285.78125 685.304688 302.644531 688.75 325.429688 685.597656 C 349.484375 682.273438 358.554688 667.238281 350.640625 654.363281 C 350.640625 654.363281 357.597656 634.746094 339.667969 620.390625 C 321.746094 606.035156 305.394531 614.722656 305.394531 614.722656 C 305.394531 614.722656 311.664062 611.074219 311.964844 602.660156 C 312.339844 592.082031 304.425781 579.324219 289.597656 571.847656 C 274.367188 564.171875 262.363281 570.691406 264.398438 583.679688 " fill-opacity="1" fill-rule="nonzero"/><path fill="#ffeeee" d="M 248.476562 644.421875 C 250.339844 648.480469 259.5 665.835938 291.804688 672.886719 C 324.082031 679.945312 344.378906 667.769531 350.742188 657.621094 C 351.996094 661.265625 352.371094 666.640625 350.746094 670.066406 C 347.347656 677.261719 336.5 683.046875 324.039062 684.765625 C 302.722656 687.710938 287.011719 684.800781 267.539062 675.066406 C 249.523438 666.046875 242.722656 652.039062 242.625 651.921875 C 242.398438 651.640625 242.222656 651.523438 241.878906 651.40625 C 223.714844 645.316406 212.210938 628.488281 213.339844 616.820312 C 213.667969 613.429688 215.136719 610.410156 216.9375 609.199219 C 218.46875 608.164062 221.019531 608.101562 222.253906 608.21875 C 222.265625 612.253906 222.902344 622.417969 230.546875 631.765625 C 234.429688 636.515625 240.316406 641.027344 248.476562 644.421875 " fill-opacity="1" fill-rule="nonzero"/><path fill="#443232" d="M 267.792969 594.222656 C 268.84375 595.507812 270.085938 596.792969 271.550781 597.988281 C 272.378906 598.660156 273.589844 598.535156 274.269531 597.710938 C 274.945312 596.886719 274.816406 595.664062 273.992188 595 C 267.972656 590.097656 266.289062 583.304688 266.269531 583.238281 C 266.011719 582.210938 264.984375 581.5625 263.949219 581.808594 C 262.914062 582.054688 262.273438 583.085938 262.519531 584.121094 C 262.578125 584.382812 263.777344 589.316406 267.792969 594.222656 " fill-opacity="1" fill-rule="nonzero"/><path fill="#443232" d="M 282.246094 637.707031 C 282.445312 637.945312 282.699219 638.140625 283.003906 638.269531 C 283.992188 638.671875 285.117188 638.203125 285.523438 637.21875 C 292.175781 621.078125 305.835938 616.605469 305.976562 616.566406 C 306.992188 616.246094 307.554688 615.160156 307.234375 614.148438 C 306.910156 613.136719 305.832031 612.566406 304.8125 612.886719 C 304.1875 613.085938 289.289062 617.960938 281.957031 635.75 C 281.671875 636.433594 281.8125 637.175781 282.246094 637.707031 " fill-opacity="1" fill-rule="nonzero"/><path fill="#443232" d="M 279.894531 605.902344 C 279.933594 605.953125 279.972656 605.992188 280.011719 606.035156 C 280.183594 606.207031 284.246094 610.296875 290.289062 613.269531 C 293.414062 614.808594 302.917969 619.484375 310.160156 613.429688 C 310.96875 612.746094 311.082031 611.542969 310.417969 610.730469 C 310.410156 610.722656 310.40625 610.71875 310.398438 610.707031 C 309.71875 609.890625 308.503906 609.785156 307.679688 610.472656 C 304.058594 613.507812 299.074219 613.292969 291.996094 609.8125 C 286.558594 607.140625 282.800781 603.371094 282.761719 603.332031 C 282.011719 602.578125 280.792969 602.566406 280.035156 603.3125 C 279.324219 604.019531 279.273438 605.140625 279.894531 605.902344 " fill-opacity="1" fill-rule="nonzero"/><g clip-path="url(#9c73a31d3e)"><path fill="#443232" d="M 243.167969 652.003906 C 243.226562 652.140625 249.730469 665.113281 267.746094 674.128906 C 287.214844 683.867188 303.851562 686.632812 325.167969 683.6875 C 337.628906 681.96875 346.734375 676.855469 350.132812 669.65625 C 352.28125 665.121094 351.878906 660.046875 349.003906 655.371094 C 348.695312 654.871094 348.632812 654.269531 348.824219 653.722656 C 349.085938 652.964844 355.035156 635.179688 338.460938 621.894531 C 321.800781 608.554688 306.921875 616.105469 306.292969 616.429688 C 305.371094 616.914062 304.242188 616.574219 303.714844 615.664062 C 303.207031 614.753906 303.515625 613.601562 304.410156 613.070312 C 304.628906 612.9375 309.777344 609.777344 310.03125 602.59375 C 310.359375 593.652344 303.890625 581.214844 288.722656 573.570312 C 281.292969 569.820312 274.269531 569.464844 269.945312 572.609375 C 266.859375 574.851562 265.566406 578.679688 266.304688 583.382812 C 266.398438 584.007812 266.1875 584.632812 265.734375 585.066406 C 265.28125 585.507812 264.644531 585.691406 264.023438 585.574219 C 262.976562 585.371094 238.203125 580.90625 225.523438 607.96875 C 225.121094 608.828125 224.136719 609.265625 223.222656 608.996094 C 223.1875 608.984375 219.789062 608.011719 217.222656 609.738281 C 215.421875 610.957031 214.339844 613.289062 214.011719 616.6875 C 212.882812 628.351562 223.882812 644.929688 242.046875 651.023438 C 242.390625 651.140625 242.699219 651.351562 242.929688 651.632812 C 243.023438 651.75 243.101562 651.871094 243.167969 652.003906 Z M 210.175781 616.3125 C 210.621094 611.695312 212.277344 608.40625 215.101562 606.519531 C 217.796875 604.722656 220.851562 604.734375 222.683594 604.972656 C 234.359375 581.683594 255.089844 580.980469 262.253906 581.5 C 262.097656 576.449219 264.011719 572.15625 267.667969 569.492188 C 273.1875 565.480469 281.710938 565.714844 290.464844 570.128906 C 304.914062 577.414062 314.332031 590.519531 313.890625 602.734375 C 313.773438 606.019531 312.847656 608.65625 311.6875 610.707031 C 318.496094 609.433594 329.355469 609.667969 340.878906 618.886719 C 357.417969 632.152344 353.863281 649.933594 352.734375 654.101562 C 355.902344 659.722656 356.226562 665.800781 353.621094 671.304688 C 349.65625 679.699219 339.480469 685.605469 325.695312 687.511719 C 303.539062 690.570312 286.246094 687.695312 266.019531 677.574219 C 249.058594 669.082031 241.765625 657.46875 240.082031 654.425781 C 230.976562 651.21875 223.730469 645.753906 218.636719 639.527344 C 212.488281 632.011719 209.488281 623.386719 210.175781 616.3125 " fill-opacity="1" fill-rule="nonzero"/></g><path fill="#443232" d="M 230.316406 632.304688 C 234.203125 637.046875 239.835938 641.585938 248 644.980469 C 249.863281 649.039062 259.714844 666.769531 292.027344 673.824219 C 328.664062 681.832031 349.496094 665.4375 352.5 654.890625 C 352.792969 653.859375 352.203125 652.800781 351.171875 652.507812 C 350.148438 652.210938 349.082031 652.804688 348.789062 653.832031 C 346.207031 662.878906 326.574219 677.425781 292.851562 670.058594 C 259.222656 662.710938 251.339844 643.007812 251.265625 642.8125 C 251.078125 642.3125 250.679688 641.910156 250.175781 641.707031 C 223.46875 631.007812 225.671875 607.59375 225.691406 607.359375 C 225.816406 606.296875 225.050781 605.347656 223.980469 605.230469 C 222.925781 605.117188 221.972656 605.882812 221.863281 606.941406 C 221.839844 607.128906 220.582031 620.394531 230.316406 632.304688 " fill-opacity="1" fill-rule="nonzero"/><path fill="#e6644e" d="M 290.433594 596.675781 C 288.386719 596.675781 286.324219 596.027344 284.574219 594.6875 C 280.347656 591.453125 279.542969 585.40625 282.785156 581.175781 C 332.632812 516.15625 297.519531 452.121094 296 449.433594 C 293.386719 444.800781 295.015625 438.921875 299.640625 436.300781 C 304.257812 433.671875 310.132812 435.285156 312.769531 439.902344 C 314.558594 443.035156 355.902344 517.503906 298.097656 592.898438 C 296.199219 595.378906 293.332031 596.675781 290.433594 596.675781 " fill-opacity="1" fill-rule="nonzero"/><path fill="#443232" d="M 304.386719 436.972656 C 303.097656 436.972656 301.792969 437.296875 300.597656 437.980469 C 296.898438 440.074219 295.589844 444.785156 297.675781 448.488281 C 299.226562 451.222656 334.9375 516.320312 284.316406 582.34375 C 281.726562 585.722656 282.371094 590.574219 285.75 593.160156 C 289.035156 595.671875 294.058594 594.992188 296.5625 591.726562 C 353.601562 517.335938 312.859375 443.945312 311.09375 440.855469 C 309.671875 438.371094 307.066406 436.972656 304.386719 436.972656 Z M 290.433594 598.605469 C 287.867188 598.605469 285.441406 597.777344 283.398438 596.210938 C 278.332031 592.339844 277.371094 585.066406 281.253906 580.003906 C 330.339844 515.976562 295.816406 453.027344 294.316406 450.378906 C 291.191406 444.828125 293.152344 437.765625 298.6875 434.625 C 304.207031 431.46875 311.28125 433.414062 314.449219 438.945312 C 316.261719 442.125 358.203125 517.671875 299.628906 594.066406 C 297.417969 596.949219 294.070312 598.605469 290.433594 598.605469 " fill-opacity="1" fill-rule="nonzero"/><path fill="#e6644e" d="M 489.269531 584.304688 C 489.195312 584.304688 489.125 584.304688 489.042969 584.300781 C 483.722656 584.183594 479.503906 579.765625 479.621094 574.441406 C 481.773438 480.527344 412.398438 464.699219 411.699219 464.546875 C 406.484375 463.441406 403.164062 458.328125 404.269531 453.121094 C 405.378906 447.90625 410.507812 444.589844 415.714844 445.695312 C 416.570312 445.875 501.421875 465.179688 498.910156 574.890625 C 498.792969 580.128906 494.496094 584.304688 489.269531 584.304688 " fill-opacity="1" fill-rule="nonzero"/><path fill="#443232" d="M 413.707031 447.410156 C 410.144531 447.410156 406.929688 449.902344 406.15625 453.523438 C 405.273438 457.679688 407.941406 461.777344 412.101562 462.664062 C 412.820312 462.816406 483.738281 479.164062 481.550781 574.488281 C 481.457031 578.738281 484.839844 582.277344 489.089844 582.371094 L 489.269531 584.304688 L 489.269531 582.375 C 493.429688 582.375 496.886719 578.996094 496.980469 574.84375 C 499.453125 467.007812 416.15625 447.761719 415.3125 447.578125 C 414.773438 447.464844 414.238281 447.410156 413.707031 447.410156 Z M 489.269531 586.230469 L 488.949219 586.226562 C 482.625 586.085938 477.550781 580.773438 477.691406 574.398438 C 479.800781 482.519531 411.976562 466.582031 411.289062 466.429688 C 408.269531 465.792969 405.679688 464.011719 403.996094 461.417969 C 402.3125 458.832031 401.738281 455.742188 402.382812 452.71875 C 403.710938 446.476562 409.863281 442.5 416.109375 443.804688 C 416.984375 443.992188 503.390625 463.503906 500.839844 574.933594 C 500.699219 581.164062 495.507812 586.230469 489.269531 586.230469 " fill-opacity="1" fill-rule="nonzero"/><path fill="#e6644e" d="M 576.582031 390.582031 C 529.023438 388.433594 495.902344 353.074219 494.191406 351.210938 C 490.589844 347.289062 490.851562 341.191406 494.777344 337.59375 C 498.703125 333.992188 504.796875 334.257812 508.398438 338.171875 C 510.289062 340.210938 552.9375 385.285156 607.457031 367.019531 C 661.863281 348.792969 669.679688 265.625 669.753906 264.785156 C 670.210938 259.476562 674.910156 255.644531 680.195312 256.015625 C 685.5 256.472656 689.433594 261.148438 688.972656 266.445312 C 688.632812 270.386719 679.859375 363.097656 613.589844 385.296875 C 600.566406 389.660156 588.144531 391.109375 576.582031 390.582031 " fill-opacity="1" fill-rule="nonzero"/><path fill="#443232" d="M 501.644531 336.996094 C 499.664062 336.90625 497.652344 337.574219 496.078125 339.015625 C 494.558594 340.40625 493.675781 342.304688 493.589844 344.363281 C 493.496094 346.421875 494.21875 348.382812 495.617188 349.90625 C 496.984375 351.402344 529.722656 386.539062 576.664062 388.65625 C 588.84375 389.207031 601.058594 387.460938 612.980469 383.46875 C 678.03125 361.671875 686.714844 270.167969 687.050781 266.277344 C 687.230469 264.234375 686.597656 262.234375 685.265625 260.65625 C 683.945312 259.074219 682.085938 258.109375 680.027344 257.9375 C 679.964844 257.929688 679.898438 257.925781 679.835938 257.925781 C 675.6875 257.734375 672.03125 260.847656 671.671875 264.953125 C 671.597656 265.804688 663.730469 350.199219 608.070312 368.851562 C 552.339844 387.519531 508.808594 341.449219 506.984375 339.476562 C 505.546875 337.917969 503.613281 337.085938 501.644531 336.996094 Z M 576.492188 392.511719 C 527.972656 390.316406 494.183594 354.054688 492.769531 352.515625 C 490.683594 350.238281 489.605469 347.285156 489.734375 344.199219 C 489.867188 341.109375 491.191406 338.257812 493.472656 336.175781 C 498.171875 331.863281 505.503906 332.167969 509.820312 336.867188 C 511.570312 338.757812 553.441406 383.085938 606.847656 365.191406 C 660.078125 347.355469 667.757812 265.445312 667.832031 264.617188 C 668.371094 258.371094 673.921875 253.785156 680.328125 254.089844 C 683.445312 254.359375 686.234375 255.808594 688.226562 258.175781 C 690.214844 260.539062 691.160156 263.535156 690.894531 266.613281 C 690.550781 270.597656 681.632812 364.535156 614.207031 387.128906 C 601.835938 391.269531 589.148438 393.082031 576.492188 392.511719 " fill-opacity="1" fill-rule="nonzero"/><path fill="#e6644e" d="M 498.832031 134.167969 C 418.980469 121.59375 377.914062 190.195312 377.914062 190.195312 C 377.914062 190.195312 337.160156 122.601562 257.523438 137.101562 C 171.785156 152.714844 131.710938 269.261719 204.546875 368.433594 C 252.546875 433.777344 334.777344 484.71875 378.265625 484.71875 C 423.230469 484.71875 502.589844 432.597656 551.152344 366.136719 C 625.039062 265.011719 585.097656 147.746094 498.832031 134.167969 " fill-opacity="1" fill-rule="nonzero"/><path fill="#443232" d="M 279.3125 137.015625 C 272.511719 137.015625 265.371094 137.632812 257.871094 139 C 221.957031 145.53125 192.972656 170.34375 178.355469 207.054688 C 158.550781 256.773438 168.925781 316.675781 206.109375 367.292969 C 254.667969 433.402344 337.046875 482.792969 378.265625 482.792969 C 424.480469 482.792969 502.941406 428.847656 549.59375 364.996094 C 587.882812 312.59375 598.347656 251.347656 577.582031 201.164062 C 562.777344 165.375 533.960938 141.648438 498.53125 136.074219 C 420.902344 123.863281 379.972656 190.515625 379.570312 191.183594 C 379.222656 191.765625 378.589844 192.125 377.921875 192.125 C 377.914062 192.125 377.914062 192.125 377.914062 192.125 C 377.238281 192.125 376.613281 191.773438 376.257812 191.191406 C 375.902344 190.59375 342.710938 137.015625 279.3125 137.015625 Z M 378.265625 486.648438 C 336.046875 486.648438 253.675781 438.570312 202.992188 369.574219 C 165.023438 317.882812 154.476562 256.589844 174.769531 205.625 C 189.890625 167.65625 219.925781 141.984375 257.175781 135.207031 C 328.339844 122.261719 369.398438 174.496094 377.902344 186.710938 C 386.414062 174.359375 427.746094 121.046875 499.128906 132.261719 C 535.917969 138.058594 565.820312 162.632812 581.148438 199.695312 C 602.429688 251.128906 591.796875 313.773438 552.707031 367.269531 C 505.429688 431.984375 425.542969 486.648438 378.265625 486.648438 " fill-opacity="1" fill-rule="nonzero"/><path fill="#443232" d="M 487.039062 215.84375 C 486.355469 215.84375 485.695312 215.484375 485.34375 214.847656 C 482.589844 209.875 479.019531 206.792969 474.71875 205.683594 C 467.296875 203.785156 460.070312 208.277344 460 208.324219 C 459.105469 208.886719 457.90625 208.625 457.335938 207.722656 C 456.765625 206.824219 457.039062 205.628906 457.941406 205.066406 C 458.292969 204.839844 466.660156 199.640625 475.671875 201.953125 C 481.046875 203.332031 485.4375 207.042969 488.71875 212.984375 C 489.234375 213.914062 488.898438 215.089844 487.964844 215.601562 C 487.667969 215.769531 487.351562 215.84375 487.039062 215.84375 " fill-opacity="1" fill-rule="nonzero"/><path fill="#443232" d="M 278.886719 218.558594 C 278.628906 218.558594 278.371094 218.507812 278.121094 218.402344 C 277.140625 217.976562 276.695312 216.847656 277.113281 215.867188 C 279.804688 209.636719 283.8125 205.511719 289.027344 203.625 C 297.765625 200.445312 306.609375 204.808594 306.984375 204.996094 C 307.933594 205.476562 308.3125 206.628906 307.839844 207.578125 C 307.363281 208.527344 306.199219 208.910156 305.25 208.445312 C 305.171875 208.402344 297.476562 204.640625 290.316406 207.253906 C 286.15625 208.773438 282.90625 212.183594 280.660156 217.398438 C 280.339844 218.125 279.628906 218.558594 278.886719 218.558594 " fill-opacity="1" fill-rule="nonzero"/><path fill="#ffeeee" d="M 414.367188 356.761719 C 398.136719 364.007812 394.175781 364.855469 385.5 364.855469 C 378.304688 364.855469 372.859375 364.007812 356.636719 356.761719 C 339.355469 349.042969 324.269531 363.308594 335.652344 386.351562 C 345.039062 405.335938 368.804688 410.734375 385.5 410.734375 C 400.855469 410.734375 425.828125 405.207031 435.335938 386.351562 C 446.917969 363.398438 431.640625 349.042969 414.367188 356.761719 " fill-opacity="1" fill-rule="nonzero"/><path fill="#443232" d="M 347.386719 356.597656 C 343.503906 356.597656 340.03125 357.921875 337.539062 360.515625 C 332.367188 365.878906 332.308594 375.222656 337.386719 385.5 C 345.875 402.6875 367.808594 408.804688 385.5 408.804688 C 402.269531 408.804688 424.929688 402.703125 433.621094 385.480469 C 438.753906 375.304688 438.738281 366.003906 433.582031 360.597656 C 429.320312 356.140625 422.261719 355.351562 415.148438 358.519531 C 398.476562 365.976562 394.402344 366.78125 385.5 366.78125 C 377.625 366.78125 371.761719 365.632812 355.847656 358.519531 C 352.957031 357.230469 350.070312 356.597656 347.386719 356.597656 Z M 385.5 412.660156 C 376.347656 412.660156 345.601562 410.828125 333.925781 387.207031 C 328.097656 375.40625 328.40625 364.433594 334.757812 357.839844 C 340.140625 352.246094 348.820312 351.15625 357.417969 355.007812 C 373.96875 362.394531 379.066406 362.925781 385.5 362.925781 C 393.882812 362.925781 397.472656 362.199219 413.578125 355.007812 C 422.21875 351.140625 430.953125 352.269531 436.371094 357.941406 C 442.707031 364.574219 442.964844 375.519531 437.058594 387.21875 C 427.585938 406 403.367188 412.660156 385.5 412.660156 " fill-opacity="1" fill-rule="nonzero"/><path fill="#443232" d="M 387.898438 411.402344 L 384.039062 411.402344 L 384.039062 364.472656 L 387.898438 364.472656 L 387.898438 411.402344 " fill-opacity="1" fill-rule="nonzero"/><path fill="#443232" d="M 420.109375 401.785156 L 408.058594 360.253906 L 411.757812 359.175781 L 423.816406 400.714844 L 420.109375 401.785156 " fill-opacity="1" fill-rule="nonzero"/><path fill="#443232" d="M 353.050781 401.785156 L 349.34375 400.714844 L 361.394531 359.175781 L 365.101562 360.253906 L 353.050781 401.785156 " fill-opacity="1" fill-rule="nonzero"/><path fill="#443232" d="M 390.554688 342.449219 C 390.300781 342.523438 390.0625 342.589844 389.832031 342.640625 C 388.796875 342.878906 387.761719 342.238281 387.523438 341.203125 C 387.277344 340.164062 387.917969 339.058594 388.953125 338.886719 C 389.328125 338.78125 398.210938 336.589844 398.355469 328.695312 C 398.496094 321.0625 389.367188 318.175781 389.277344 318.148438 C 388.261719 317.84375 387.683594 316.757812 387.996094 315.742188 C 388.316406 314.722656 389.394531 314.148438 390.40625 314.46875 C 390.898438 314.613281 402.410156 318.261719 402.214844 328.765625 C 402.0625 337.023438 394.898438 341.191406 390.554688 342.449219 " fill-opacity="1" fill-rule="nonzero"/><path fill="#443232" d="M 386.617188 210.375 C 385.816406 210.375 385.074219 209.875 384.792969 209.082031 C 381.707031 200.25 376.316406 191.28125 376.257812 191.195312 C 375.710938 190.28125 376.007812 189.101562 376.917969 188.546875 C 377.824219 187.988281 379.011719 188.285156 379.566406 189.203125 C 379.792969 189.582031 385.21875 198.605469 388.433594 207.808594 C 388.785156 208.8125 388.253906 209.914062 387.25 210.265625 C 387.042969 210.339844 386.824219 210.375 386.617188 210.375 " fill-opacity="1" fill-rule="nonzero"/><path fill="#ffeeee" d="M 700.785156 283.621094 C 700.785156 283.621094 709.378906 281.789062 716.542969 271.402344 C 724.636719 259.671875 722.449219 253.292969 728.027344 247.820312 C 733.59375 242.355469 742.140625 242.484375 750.65625 237.539062 C 759.175781 232.59375 764.234375 222.226562 757.679688 214.625 C 751.121094 207.027344 742.53125 209.613281 732.785156 218.78125 C 723.039062 227.945312 716.710938 228.320312 714.503906 226.367188 C 712.117188 224.257812 711.109375 219.75 719.324219 211.15625 C 728.792969 201.25 738.679688 191.164062 731.957031 180.46875 C 725.90625 170.84375 710.550781 172.746094 706.667969 187.632812 C 702.589844 203.277344 698.339844 210.648438 694.78125 211.117188 C 691.53125 211.546875 689.769531 209.070312 693.019531 196.292969 C 696.273438 183.511719 697.949219 173.042969 689.789062 165.53125 C 680.714844 157.167969 669.316406 161.585938 666.816406 173.511719 C 664.144531 186.238281 671.785156 197.914062 671.230469 209.773438 C 670.671875 221.644531 666.835938 222.777344 665.402344 222.832031 C 663.972656 222.894531 661.230469 221.816406 658.847656 214.6875 C 656.464844 207.558594 643.324219 194.644531 628.914062 202.613281 C 614.511719 210.574219 616.667969 220.996094 619.703125 224.992188 C 622.738281 228.992188 627.4375 231.683594 635.617188 231.332031 C 643.800781 230.988281 647.820312 235.566406 647.335938 245.324219 C 646.851562 255.082031 646.773438 263.714844 658.246094 272.0625 C 658.246094 272.0625 649.878906 273.171875 647.480469 278.929688 C 644.589844 285.878906 651.65625 295.714844 674.207031 301.023438 C 696.699219 306.320312 704.8125 298.21875 705.847656 293.015625 C 707.039062 287.058594 700.785156 283.621094 700.785156 283.621094 " fill-opacity="1" fill-rule="nonzero"/><path fill="#443232" d="M 637.359375 229.40625 C 640.847656 229.5625 643.632812 230.667969 645.652344 232.691406 C 648.328125 235.390625 649.550781 239.667969 649.265625 245.417969 C 648.828125 254.214844 648.414062 262.523438 659.378906 270.503906 C 660.019531 270.960938 660.308594 271.769531 660.113281 272.53125 C 659.921875 273.296875 659.285156 273.859375 658.503906 273.972656 C 658.429688 273.976562 651.199219 275.023438 649.265625 279.667969 C 648.515625 281.464844 648.660156 283.40625 649.699219 285.433594 C 652.589844 291.09375 661.691406 296.089844 674.648438 299.144531 C 688.695312 302.449219 696.117188 300.28125 699.855469 297.882812 C 703.015625 295.855469 703.777344 293.542969 703.957031 292.640625 C 704.855469 288.121094 699.90625 285.34375 699.855469 285.308594 C 699.152344 284.925781 698.761719 284.140625 698.871094 283.34375 C 698.992188 282.550781 699.589844 281.90625 700.378906 281.738281 C 700.554688 281.699219 708.414062 279.804688 714.957031 270.3125 C 718.976562 264.484375 720.320312 260.144531 721.503906 256.308594 C 722.644531 252.617188 723.636719 249.425781 726.671875 246.449219 C 730.132812 243.050781 734.511719 241.652344 739.136719 240.171875 C 742.582031 239.066406 746.144531 237.933594 749.683594 235.875 C 754.433594 233.121094 757.84375 228.65625 758.585938 224.226562 C 759.113281 221.125 758.3125 218.3125 756.214844 215.886719 C 754.140625 213.472656 751.882812 212.238281 749.320312 212.105469 C 749.304688 212.105469 749.28125 212.105469 749.265625 212.105469 C 745.109375 211.914062 740.007812 214.636719 734.105469 220.191406 C 723.558594 230.109375 716.265625 230.484375 713.222656 227.8125 C 711.769531 226.527344 710.964844 224.816406 710.878906 222.871094 C 710.730469 219.21875 713.03125 214.949219 717.929688 209.824219 L 718.339844 209.394531 C 727.5 199.8125 736.152344 190.761719 730.324219 181.496094 C 728.015625 177.820312 723.914062 175.929688 719.660156 176.601562 C 714.359375 177.417969 710.203125 181.726562 708.535156 188.121094 C 702.289062 212.070312 696.824219 212.792969 695.03125 213.027344 C 692.78125 213.316406 691.484375 212.457031 690.796875 211.679688 C 688.789062 209.421875 688.894531 204.679688 691.148438 195.816406 C 694.230469 183.691406 696 173.867188 688.480469 166.945312 C 684.863281 163.613281 680.621094 162.398438 676.832031 163.613281 C 672.824219 164.894531 669.789062 168.738281 668.707031 173.902344 C 667.300781 180.625 669.011719 187.277344 670.664062 193.714844 C 672.011719 198.964844 673.410156 204.382812 673.152344 209.871094 C 672.5625 222.570312 668.09375 224.65625 665.480469 224.761719 C 663.085938 224.863281 659.6875 223.296875 657.015625 215.296875 C 655.867188 211.871094 651.230469 205.863281 644.511719 203.25 C 639.53125 201.316406 634.605469 201.671875 629.851562 204.300781 C 624.082031 207.488281 620.554688 211.441406 619.648438 215.738281 C 618.914062 219.191406 619.992188 222.1875 621.242188 223.828125 C 624.351562 227.917969 628.867188 229.691406 635.535156 229.40625 C 636.160156 229.378906 636.769531 229.378906 637.359375 229.40625 Z M 685.453125 304.628906 C 682.089844 304.476562 678.21875 303.945312 673.761719 302.894531 C 659.492188 299.535156 649.726562 293.953125 646.261719 287.1875 C 644.707031 284.148438 644.515625 281.042969 645.703125 278.1875 C 647.328125 274.273438 651.109375 272.207031 654.054688 271.15625 C 644.550781 262.625 645.003906 253.425781 645.410156 245.230469 C 645.640625 240.613281 644.796875 237.304688 642.910156 235.40625 C 641.355469 233.839844 638.945312 233.125 635.695312 233.261719 C 627.789062 233.597656 622.058594 231.277344 618.164062 226.160156 C 616.402344 223.835938 614.871094 219.664062 615.871094 214.9375 C 616.667969 211.15625 619.417969 205.65625 627.984375 200.925781 C 633.71875 197.761719 639.914062 197.316406 645.910156 199.65625 C 653.335938 202.542969 659.0625 209.246094 660.675781 214.078125 C 662.507812 219.546875 664.484375 220.933594 665.324219 220.910156 C 666.605469 220.855469 668.894531 218.4375 669.300781 209.6875 C 669.53125 204.785156 668.265625 199.875 666.929688 194.675781 C 665.164062 187.808594 663.332031 180.707031 664.925781 173.113281 C 666.296875 166.578125 670.3125 161.648438 675.660156 159.945312 C 680.796875 158.289062 686.429688 159.816406 691.097656 164.113281 C 700.164062 172.460938 698.175781 183.84375 694.890625 196.765625 C 692.308594 206.921875 693.429688 208.835938 693.675781 209.121094 C 693.816406 209.265625 694.269531 209.238281 694.527344 209.207031 C 695.003906 209.144531 699.363281 207.992188 704.800781 187.144531 C 706.871094 179.214844 712.199219 173.847656 719.070312 172.789062 C 724.886719 171.878906 730.445312 174.445312 733.589844 179.445312 C 741.015625 191.257812 730.445312 202.308594 721.125 212.0625 L 720.722656 212.480469 C 715.375 218.085938 714.675781 221.292969 714.738281 222.710938 C 714.777344 223.609375 715.113281 224.335938 715.777344 224.921875 C 717.074219 226.058594 722.601562 225.710938 731.460938 217.375 C 738.289062 210.964844 744.230469 207.824219 749.523438 208.253906 C 753.140625 208.445312 756.378906 210.167969 759.140625 213.367188 C 761.980469 216.660156 763.105469 220.636719 762.394531 224.867188 C 761.46875 230.394531 757.335938 235.890625 751.625 239.210938 C 747.722656 241.472656 743.785156 242.730469 740.3125 243.84375 C 735.957031 245.234375 732.1875 246.441406 729.375 249.203125 C 727.03125 251.5 726.257812 253.996094 725.191406 257.449219 C 723.988281 261.339844 722.488281 266.183594 718.136719 272.496094 C 713.417969 279.335938 708.09375 282.683594 704.695312 284.25 C 706.597656 286.175781 708.5625 289.265625 707.742188 293.394531 C 707.15625 296.316406 705.042969 299.132812 701.941406 301.125 C 698.839844 303.117188 693.683594 305 685.453125 304.628906 " fill-opacity="1" fill-rule="nonzero"/><path fill="#443232" d="M 709.425781 240.804688 C 708.894531 240.78125 708.375 240.535156 708.015625 240.09375 C 707.875 239.925781 694.089844 223.195312 677.671875 226.355469 C 676.617188 226.578125 675.613281 225.875 675.414062 224.824219 C 675.207031 223.777344 675.894531 222.773438 676.941406 222.570312 C 695.679688 218.972656 710.398438 236.902344 711.019531 237.667969 C 711.683594 238.496094 711.554688 239.707031 710.730469 240.378906 C 710.347656 240.679688 709.882812 240.828125 709.425781 240.804688 " fill-opacity="1" fill-rule="nonzero"/><path fill="#443232" d="M 689.773438 255.449219 C 688.757812 255.398438 687.945312 254.566406 687.933594 253.539062 C 687.929688 253.011719 687.675781 240.503906 676.21875 234.277344 C 675.285156 233.773438 674.9375 232.601562 675.445312 231.667969 C 675.957031 230.730469 677.125 230.371094 678.0625 230.898438 C 691.558594 238.226562 691.789062 252.894531 691.792969 253.515625 C 691.796875 254.578125 690.941406 255.445312 689.875 255.449219 C 689.839844 255.449219 689.808594 255.449219 689.773438 255.449219 " fill-opacity="1" fill-rule="nonzero"/><path fill="#443232" d="M 694.785156 285.625 C 692.347656 285.511719 689.445312 285.222656 686.5625 284.535156 C 685.523438 284.289062 684.886719 283.25 685.132812 282.210938 C 685.375 281.179688 686.417969 280.542969 687.453125 280.785156 C 693.835938 282.292969 700.546875 281.707031 700.613281 281.707031 C 701.664062 281.542969 702.613281 282.394531 702.710938 283.449219 C 702.804688 284.511719 702.019531 285.445312 700.957031 285.546875 C 700.785156 285.5625 698.257812 285.78125 694.785156 285.625 " fill-opacity="1" fill-rule="nonzero"/><path fill="#443232" d="M 664.238281 275.261719 C 660.34375 275.089844 657.679688 273.917969 657.449219 273.816406 C 656.484375 273.378906 656.046875 272.234375 656.488281 271.261719 C 656.925781 270.296875 658.058594 269.855469 659.035156 270.300781 C 659.425781 270.480469 668.675781 274.417969 677.617188 266.441406 C 678.410156 265.738281 679.628906 265.796875 680.335938 266.589844 C 681.042969 267.386719 680.976562 268.601562 680.183594 269.3125 C 674.457031 274.425781 668.585938 275.460938 664.238281 275.261719 " fill-opacity="1" fill-rule="nonzero"/><path fill="#ffeeee" d="M 364.101562 281.527344 C 365.046875 310.367188 346.742188 334.363281 323.21875 335.136719 C 299.695312 335.90625 279.855469 313.152344 278.910156 284.320312 C 277.964844 255.484375 296.269531 231.484375 319.789062 230.710938 C 343.316406 229.941406 363.152344 252.695312 364.101562 281.527344 " fill-opacity="1" fill-rule="nonzero"/><path fill="#443232" d="M 319.855469 232.640625 C 297.429688 233.378906 279.925781 256.527344 280.839844 284.253906 C 281.746094 311.980469 300.730469 333.941406 323.15625 333.207031 C 345.582031 332.472656 363.085938 309.316406 362.171875 281.589844 C 361.261719 253.863281 342.28125 231.910156 319.855469 232.640625 Z M 323.285156 337.058594 C 298.734375 337.867188 277.957031 314.234375 276.980469 284.382812 C 276 254.53125 295.175781 229.59375 319.726562 228.789062 C 344.277344 227.984375 365.054688 251.617188 366.03125 281.464844 C 367.011719 311.316406 347.835938 336.257812 323.285156 337.058594 " fill-opacity="1" fill-rule="nonzero"/><path fill="#443232" d="M 329.496094 231.796875 C 313.851562 236.785156 301.9375 252.242188 298.996094 271.46875 C 304.773438 276.34375 311.402344 282.230469 311.445312 283.617188 C 311.5 285.175781 305.8125 292.480469 300.882812 298.519531 C 306.339844 316.519531 319.804688 329.828125 335.878906 332.34375 C 352.960938 325.140625 364.867188 304.921875 364.101562 281.527344 C 363.285156 256.773438 348.539062 236.546875 329.496094 231.796875 " fill-opacity="1" fill-rule="nonzero"/><path fill="#ffeeee" d="M 351.652344 259.890625 C 351.808594 264.507812 348.492188 268.355469 344.253906 268.496094 C 340.011719 268.636719 336.453125 265.011719 336.304688 260.394531 C 336.152344 255.785156 339.460938 251.929688 343.707031 251.796875 C 347.945312 251.648438 351.503906 255.28125 351.652344 259.890625 " fill-opacity="1" fill-rule="nonzero"/><path fill="#ffeeee" d="M 414.433594 282.632812 C 413.851562 311.476562 432.460938 335.242188 456 335.710938 C 479.53125 336.179688 499.078125 313.175781 499.648438 284.332031 C 500.222656 255.488281 481.613281 231.722656 458.082031 231.253906 C 434.546875 230.785156 415.003906 253.789062 414.433594 282.632812 " fill-opacity="1" fill-rule="nonzero"/><path fill="#443232" d="M 458.042969 233.183594 C 435.609375 232.734375 416.910156 254.941406 416.355469 282.671875 C 415.800781 310.410156 433.601562 333.335938 456.035156 333.789062 C 478.46875 334.230469 497.171875 312.03125 497.722656 284.292969 C 498.273438 256.5625 480.476562 233.628906 458.042969 233.183594 Z M 455.960938 337.640625 C 431.398438 337.152344 411.90625 312.460938 412.496094 282.59375 C 413.097656 252.734375 433.558594 228.839844 458.121094 229.328125 C 482.679688 229.820312 502.175781 254.511719 501.578125 284.371094 C 500.984375 314.234375 480.515625 338.132812 455.960938 337.640625 " fill-opacity="1" fill-rule="nonzero"/><path fill="#443232" d="M 465.550781 232.800781 C 449.664062 236.964844 436.953125 251.765625 433.003906 270.816406 C 438.511719 275.988281 444.820312 282.214844 444.796875 283.601562 C 444.765625 285.160156 438.703125 292.15625 433.457031 297.925781 C 437.960938 316.1875 450.703125 330.191406 466.621094 333.542969 C 484.0625 327.25 498.664062 310.132812 499.167969 284.996094 C 499.660156 260.234375 484.3125 238.550781 465.550781 232.800781 " fill-opacity="1" fill-rule="nonzero"/><path fill="#ffeeee" d="M 486.199219 262.03125 C 486.109375 266.640625 482.597656 270.320312 478.351562 270.230469 C 474.113281 270.144531 470.746094 266.339844 470.84375 261.722656 C 470.929688 257.109375 474.449219 253.433594 478.6875 253.523438 C 482.925781 253.605469 486.292969 257.417969 486.199219 262.03125 " fill-opacity="1" fill-rule="nonzero"/></svg>